<svg width="24" height="24" viewBox="0 0 24 24" fill="none" xmlns="http://www.w3.org/2000/svg">
<path d="M6.77559 10.8509C6.42685 10.4226 5.79697 10.3582 5.36873 10.7069C4.94048 11.0557 4.87603 11.6856 5.22477 12.1138L6.77559 10.8509ZM9.67913 16L8.90372 16.6315C9.08022 16.8482 9.33936 16.9812 9.61835 16.9982C9.89734 17.0151 10.1707 16.9146 10.3722 16.7209L9.67913 16ZM18.6932 8.72088C19.0914 8.33811 19.1038 7.70507 18.7211 7.30694C18.3383 6.90881 17.7052 6.89636 17.3071 7.27912L18.6932 8.72088ZM5.22477 12.1138L8.90372 16.6315L10.4545 15.3685L6.77559 10.8509L5.22477 12.1138ZM10.3722 16.7209L18.6932 8.72088L17.3071 7.27912L8.98607 15.2791L10.3722 16.7209Z" fill="#70818a"/>
</svg>
